<?xml version="1.0" encoding="UTF-8"?> <!-- Generator: Adobe Illustrator 22.1.0, SVG Export Plug-In . SVG Version: 6.00 Build 0) --> <svg xmlns="http://www.w3.org/2000/svg" xmlns:xlink="http://www.w3.org/1999/xlink" version="1.1" id="Layer_1" x="0px" y="0px" viewBox="0 0 25 25" style="enable-background:new 0 0 25 25;" xml:space="preserve"> <style type="text/css"> .st0{fill:#4E4E4E;} </style> <g> <path class="st0" d="M12.5,2.6c-4.4,0-7.9,3.6-7.9,7.9v9.9c0,1.1,0.9,2,2,2c2,0,3.7-1.4,4.2-3.3c0.6,0.2,1.1,0.3,1.8,0.3 c0.6,0,1.2-0.1,1.8-0.3c0.5,1.9,2.2,3.3,4.2,3.3c1.1,0,2-0.9,2-2v-9.9C20.4,6.1,16.9,2.6,12.5,2.6L12.5,2.6z M12.5,18 c-2.3,0-4.1-1.9-4.1-4.1v-3c1.5-0.1,2.5-0.7,3.2-1.2c0.6,2.2,2.6,3.8,5,3.9v0.3C16.6,16.1,14.8,18,12.5,18z M18.9,20.4 c0,0.3-0.2,0.5-0.5,0.5c-1.4,0-2.6-1.1-2.8-2.4c1.5-1,2.5-2.7,2.5-4.7v-1.1c0-0.2-0.1-0.4-0.3-0.6c-0.2-0.1-0.4-0.2-0.6-0.2 c-0.2,0-0.4,0-0.6,0c-2.1,0-3.8-1.7-3.8-3.8c0-0.1,0-0.2,0-0.3c0-0.4-0.2-0.7-0.6-0.8c-0.3-0.1-0.7,0.1-0.9,0.4 c-0.1,0.1-1,1.8-3.9,1.8c-0.4,0-0.8,0.3-0.8,0.8v3.7c0,1.9,1,3.6,2.5,4.7c-0.2,1.4-1.3,2.4-2.8,2.4c-0.3,0-0.5-0.2-0.5-0.5v-9.9 c0-3.5,2.9-6.4,6.4-6.4c3.5,0,6.4,2.9,6.4,6.4V20.4z"></path> <path class="st0" d="M13.1,14.4c-0.3,0-0.5,0.1-0.6,0.3c-0.1-0.2-0.4-0.3-0.6-0.3c-0.4,0-0.8,0.3-0.8,0.8v0.1 c0,0.8,0.6,1.4,1.4,1.4c0.8,0,1.4-0.6,1.4-1.4v-0.1C13.9,14.7,13.5,14.4,13.1,14.4L13.1,14.4z"></path> </g> </svg> 