<?xml version="1.0" encoding="UTF-8"?> <!-- Generator: Adobe Illustrator 22.1.0, SVG Export Plug-In . SVG Version: 6.00 Build 0) --> <svg xmlns="http://www.w3.org/2000/svg" xmlns:xlink="http://www.w3.org/1999/xlink" version="1.1" id="Layer_1" x="0px" y="0px" viewBox="0 0 58 38" style="enable-background:new 0 0 58 38;" xml:space="preserve"> <style type="text/css"> .st0{fill:#4E4E4E;} </style> <g> <path class="st0" d="M51.7,1.3H6.3C3.4,1.3,1,3.6,1,6.6v24.9c0,2.9,2.4,5.3,5.3,5.3h45.4c2.9,0,5.3-2.4,5.3-5.3V6.6 C57,3.6,54.6,1.3,51.7,1.3z M55.1,6.6v11.5H29.9V3.1h21.8C53.6,3.1,55.1,4.7,55.1,6.6z M2.9,31.4V6.6c0-1.9,1.5-3.4,3.4-3.4h21.8 v14.9H4.7v1.9h23.3v14.9H6.3C4.4,34.9,2.9,33.3,2.9,31.4z M51.7,34.9H29.9V19.9h25.2v11.5C55.1,33.3,53.6,34.9,51.7,34.9z"></path> <path class="st0" d="M23.6,25.8l2.1,1.4l1-1.6l-2.8-1.9c-0.4-0.3-1-0.2-1.3,0.2c-1.6,2.1-4.1,3.4-6.7,3.4s-5.1-1.2-6.7-3.4 c-0.3-0.4-0.9-0.5-1.3-0.2l-2.8,1.9l1,1.6l2.1-1.4c0.4,0.5,0.9,0.9,1.3,1.2l-1.9,2.5l1.5,1.1l2-2.7c0.6,0.3,1.2,0.5,1.8,0.7l-0.8,3 l1.8,0.5l0.8-3.1c0.7,0.1,1.5,0.1,2.2,0l0.8,3.1l1.8-0.5l-0.8-3c0.6-0.2,1.2-0.4,1.8-0.7l2,2.7l1.5-1.1l-1.9-2.5 C22.7,26.7,23.2,26.3,23.6,25.8z"></path> <path class="st0" d="M48.8,24c-1.6,2.1-4.1,3.4-6.7,3.4c-2.6,0-5.1-1.2-6.7-3.4c-0.3-0.4-0.9-0.5-1.3-0.2l-2.8,1.9l1,1.6l2.1-1.4 c0.4,0.5,0.9,0.9,1.3,1.2l-1.9,2.5l1.5,1.1l2-2.7c0.6,0.3,1.2,0.5,1.8,0.7l-0.8,3l1.8,0.5l0.8-3.1c0.7,0.1,1.5,0.1,2.2,0l0.8,3.1 l1.8-0.5l-0.8-3c0.6-0.2,1.2-0.4,1.8-0.7l2,2.7l1.5-1.1l-1.9-2.5c0.5-0.4,0.9-0.8,1.3-1.3l2.1,1.4l1-1.6l-2.8-1.9 C49.6,23.5,49.1,23.6,48.8,24z"></path> <path class="st0" d="M8.3,10c0.4,0.5,0.9,0.9,1.3,1.2l-1.9,2.5l1.5,1.1l2-2.7c0.6,0.3,1.2,0.5,1.8,0.7l-0.8,3l1.8,0.5l0.8-3.1 c0.7,0.1,1.5,0.1,2.2,0l0.8,3.1l1.8-0.5l-0.8-3c0.6-0.2,1.2-0.4,1.8-0.7l2,2.7l1.5-1.1l-1.9-2.5c0.5-0.4,0.9-0.8,1.3-1.2l2.1,1.4 l1-1.6L23.9,8c-0.4-0.3-1-0.2-1.3,0.2c-1.6,2.1-4.1,3.4-6.7,3.4s-5.1-1.2-6.7-3.4C8.9,7.8,8.4,7.7,7.9,8L5.1,9.8l1,1.6L8.3,10z"></path> <path class="st0" d="M32.3,11.4l2.1-1.4c0.4,0.5,0.9,0.9,1.3,1.2l-1.9,2.5l1.5,1.1l2-2.7c0.6,0.3,1.2,0.5,1.8,0.7l-0.8,3l1.8,0.5 l0.8-3.1c0.7,0.1,1.5,0.1,2.2,0l0.8,3.1l1.8-0.5L45,13c0.6-0.2,1.2-0.4,1.8-0.7l2,2.7l1.5-1.1l-1.9-2.5c0.5-0.4,0.9-0.8,1.3-1.3 l2.1,1.4l1-1.6L50.1,8c-0.4-0.3-1-0.2-1.3,0.2c-1.6,2.1-4.1,3.4-6.7,3.4c-2.6,0-5.1-1.2-6.7-3.4C35,7.8,34.5,7.7,34.1,8l-2.8,1.9 L32.3,11.4z"></path> </g> </svg> 